<svg width="54" height="55" viewBox="0 0 54 55" fill="none" xmlns="http://www.w3.org/2000/svg">
<g clip-path="url(#clip0)">
<path d="M35.25 13.9375C35.7639 13.9375 36.2567 14.1416 36.62 14.505C36.9834 14.8683 37.1875 15.3611 37.1875 15.875V36.7128C37.1875 36.7128 35.25 33.3125 27.5 33.3125C19.75 33.3125 17.8125 36.7128 17.8125 36.7128V15.875C17.8125 15.3611 18.0166 14.8683 18.38 14.505C18.7433 14.1416 19.2361 13.9375 19.75 13.9375H35.25ZM19.75 12C18.7223 12 17.7367 12.4083 17.01 13.135C16.2833 13.8617 15.875 14.8473 15.875 15.875V39.125C15.875 40.1527 16.2833 41.1383 17.01 41.865C17.7367 42.5917 18.7223 43 19.75 43H35.25C36.2777 43 37.2633 42.5917 37.99 41.865C38.7167 41.1383 39.125 40.1527 39.125 39.125V15.875C39.125 14.8473 38.7167 13.8617 37.99 13.135C37.2633 12.4083 36.2777 12 35.25 12H19.75Z" fill="#202020"/>
<path d="M27.5 31.375C28.2633 31.375 29.0191 31.2247 29.7243 30.9326C30.4296 30.6404 31.0703 30.2123 31.6101 29.6726C32.1498 29.1328 32.5779 28.4921 32.8701 27.7868C33.1622 27.0816 33.3125 26.3258 33.3125 25.5625C33.3125 24.7992 33.1622 24.0434 32.8701 23.3382C32.5779 22.6329 32.1498 21.9922 31.6101 21.4524C31.0703 20.9127 30.4296 20.4846 29.7243 20.1925C29.0191 19.9003 28.2633 19.75 27.5 19.75C25.9584 19.75 24.48 20.3624 23.3899 21.4524C22.2999 22.5425 21.6875 24.0209 21.6875 25.5625C21.6875 27.1041 22.2999 28.5825 23.3899 29.6726C24.48 30.7626 25.9584 31.375 27.5 31.375V31.375Z" fill="#202020"/>
</g>
<defs>
<clipPath id="clip0">
<rect width="31" height="31" fill="white" transform="translate(12 12)"/>
</clipPath>
</defs>
</svg>
