<svg width="431" height="382" viewBox="0 0 431 382" fill="none" xmlns="http://www.w3.org/2000/svg">
<path d="M103.948 333.119C109.931 333.119 113.8 327.595 113.8 321.068V321C113.8 314.477 109.976 309.02 103.993 309.02C98.0094 309.02 94.0956 314.545 94.0956 321.068V321.135C94.0956 327.658 97.9196 333.119 103.948 333.119ZM379.218 333.052C383.852 333.052 387.18 330.456 387.18 326.461V326.394C387.18 322.836 384.751 320.937 379.578 319.804C374.449 318.706 373.235 317.473 373.235 315.278V315.21C373.235 313.114 375.169 311.45 378.183 311.45C380.612 311.45 382.772 312.214 384.931 313.978L386.461 311.949C384.076 310.051 381.647 309.088 378.273 309.088C373.865 309.088 370.625 311.783 370.625 315.444V315.512C370.625 319.34 373.1 321.068 378.453 322.233C383.312 323.267 384.481 324.495 384.481 326.659V326.727C384.481 329.026 382.412 330.69 379.308 330.69C376.069 330.69 373.73 329.593 371.3 327.393L369.681 329.323C372.47 331.819 375.529 333.052 379.218 333.052ZM156.132 332.886H158.336L164.724 313.978L171.157 332.886H173.361L181.684 309.421H178.94L172.282 328.823L165.894 309.353H163.734L157.301 328.823L150.688 309.421H147.809L156.132 332.886ZM43.2612 332.719H59.5463V330.321H47.1751L53.3831 324.797C57.5218 321.234 59.2766 319.138 59.2766 315.746V315.678C59.2766 311.881 56.2625 309.088 52.0788 309.088C47.985 309.088 45.7806 310.919 43.6663 314.045L45.6006 315.444C47.49 312.849 49.1997 311.45 51.8538 311.45C54.4181 311.45 56.5774 313.182 56.5774 315.912C56.5774 318.238 55.2729 320.037 51.719 323.232L43.2612 330.69V332.719ZM273.815 332.719H276.47V311.85H284.297V309.421H265.988V311.85H273.815V332.719ZM325.864 332.719H328.519V311.85H336.346V309.421H318.037V311.85H325.864V332.719ZM211.914 332.719H214.614L217.358 326.56H230.044L232.788 332.719H235.622L225.005 309.254H222.531L211.914 332.719ZM103.993 330.722C99.6289 330.722 96.84 326.16 96.84 321.068V321C96.84 315.876 99.5841 311.418 103.948 311.418C108.266 311.418 111.055 315.975 111.055 321.068V321.135C111.055 326.228 108.356 330.722 103.993 330.722ZM218.393 324.199L223.746 312.313L229.009 324.199H218.393Z" fill="#fff"/>
<path d="M148.055 93.5233H159.39L169.625 77.9771L179.795 93.5233H191.455L175.649 70.3335L190.807 48.1802H179.471L169.884 62.8843L160.362 48.1802H148.702L163.86 70.4631L148.055 93.5233Z" fill="#EC008C"/>
<path d="M238.575 93.5233H249.911L260.146 77.9771L270.315 93.5233H281.975L266.17 70.3335L281.327 48.1802H269.992L260.405 62.8843L250.883 48.1802H239.223L254.381 70.4631L238.575 93.5233Z" fill="#EC008C"/>
<path fill-rule="evenodd" clip-rule="evenodd" d="M290.326 245.353L238.682 244.903L216.549 211.541L194.416 244.903L142.772 245.353L216.145 136.725L290.326 245.353Z" fill="#EEEA64"/>
<path fill-rule="evenodd" clip-rule="evenodd" d="M216.12 136.89V212.172L194.441 244.866L142.797 245.315L216.12 136.89Z" fill="url(#paint0_linear)"/>
<path fill-rule="evenodd" clip-rule="evenodd" d="M216.137 136.667V212.172L238.81 244.846L290.454 245.296L216.137 136.667Z" fill="url(#paint1_linear)"/>
<path fill-rule="evenodd" clip-rule="evenodd" d="M238.68 244.903L297.162 245.353L330.002 145.484L238.68 244.903Z" fill="#EEEA64"/>
<path fill-rule="evenodd" clip-rule="evenodd" d="M194.433 244.903L135.951 245.353L103.112 145.484L194.433 244.903Z" fill="#EEEA64"/>
<defs>
<linearGradient id="paint0_linear" x1="203.215" y1="210.451" x2="168.119" y2="245.105" gradientUnits="userSpaceOnUse">
<stop stop-color="#EAEB6D"/>
<stop offset="0.577386" stop-color="#CFC24E"/>
<stop offset="1" stop-color="#885800"/>
</linearGradient>
<linearGradient id="paint1_linear" x1="230.34" y1="210.881" x2="265.436" y2="245.535" gradientUnits="userSpaceOnUse">
<stop stop-color="#EAEB6D"/>
<stop offset="0.577386" stop-color="#CFC24E"/>
<stop offset="1" stop-color="#885800"/>
</linearGradient>
</defs>
</svg>
